<svg viewBox="126 48 350.4 500.4" fill="none" xmlns="http://www.w3.org/2000/svg" style="max-height: 500px" width="350.4" height="500.4"><defs><linearGradient y2="0%" y1="0%" x2="100%" x1="0%" id="frame-dark"><stop stop-color="#0f172a" offset="0%"/><stop stop-color="#334155" offset="40%"/><stop stop-color="#1e293b" offset="70%"/><stop stop-color="#090d16" offset="100%"/></linearGradient><linearGradient y2="0%" y1="0%" x2="100%" x1="0%" id="gas-lift-shaft"><stop stop-color="#1e293b" offset="0%"/><stop stop-color="#64748b" offset="30%"/><stop stop-color="#94a3b8" offset="50%"/><stop stop-color="#334155" offset="70%"/><stop stop-color="#090d16" offset="100%"/></linearGradient><linearGradient y2="100%" y1="0%" x2="0%" x1="0%" id="mesh-gradient"><stop stop-opacity=".9" stop-color="#1e293b" offset="0%"/><stop stop-opacity=".95" stop-color="#0f172a" offset="50%"/><stop stop-color="#020617" offset="100%"/></linearGradient><linearGradient y2="100%" y1="0%" x2="0%" x1="0%" id="seat-cushion"><stop stop-color="#334155" offset="0%"/><stop stop-color="#1e293b" offset="35%"/><stop stop-color="#0f172a" offset="85%"/><stop stop-color="#020617" offset="100%"/></linearGradient><linearGradient y2="100%" y1="0%" x2="0%" x1="0%" id="armpad-gradient"><stop stop-color="#334155" offset="0%"/><stop stop-color="#1e293b" offset="60%"/><stop stop-color="#0f172a" offset="100%"/></linearGradient><linearGradient y2="100%" y1="0%" x2="0%" x1="0%" id="headrest-gradient"><stop stop-color="#334155" offset="0%"/><stop stop-color="#1e293b" offset="50%"/><stop stop-color="#0f172a" offset="100%"/></linearGradient><linearGradient y2="0%" y1="0%" x2="100%" x1="0%" id="cyan-accent"><stop stop-opacity=".4" stop-color="#0284c7" offset="0%"/><stop stop-color="#38bdf8" offset="50%"/><stop stop-opacity=".4" stop-color="#0284c7" offset="100%"/></linearGradient><linearGradient y2="0%" y1="0%" x2="100%" x1="0%" id="caster-metal"><stop stop-color="#0f172a" offset="0%"/><stop stop-color="#334155" offset="50%"/><stop stop-color="#020617" offset="100%"/></linearGradient><radialGradient fy="50%" fx="50%" r="50%" cy="50%" cx="50%" id="chair-ground-shadow"><stop stop-opacity=".45" stop-color="#020617" offset="0%"/><stop stop-opacity=".18" stop-color="#020617" offset="50%"/><stop stop-opacity="0" stop-color="#020617" offset="100%"/></radialGradient><pattern patternUnits="userSpaceOnUse" height="8" width="8" id="mesh-pattern"><path d="m0 4 4-4 4 4-4 4Z" stroke-width=".75" stroke-opacity=".35" stroke="#475569"/><circle fill-opacity=".25" fill="#38bdf8" r=".75" cy="4" cx="4"/></pattern></defs><ellipse ry="20" rx="190" fill="url(#chair-ground-shadow)" cy="545" cx="300"/><ellipse ry="9" rx="70" fill-opacity=".4" fill="#020617" cy="542" cx="300"/><ellipse ry="4" rx="14" fill-opacity=".5" fill="#020617" cy="535" cx="140"/><ellipse ry="4" rx="14" fill-opacity=".5" fill="#020617" cy="535" cx="460"/><ellipse ry="4" rx="12" fill-opacity=".45" fill="#020617" cy="542" cx="230"/><ellipse ry="4" rx="12" fill-opacity=".45" fill="#020617" cy="542" cx="370"/><g id="star-base"><rect rx="4" stroke="#020617" fill="url(#frame-dark)" y="475" x="286" height="24" width="28"/><path d="m288 488-142 36c-4 1-8 4-8 8v2h14l136-37Z" stroke-width=".75" stroke="#020617" fill="url(#frame-dark)"/><path d="m288 489-146 37" stroke-width="1.2" stroke-opacity=".4" stroke="#64748b"/><path d="m312 488 142 36c4 1 8 4 8 8v2h-14l-136-37Z" stroke-width=".75" stroke="#020617" fill="url(#frame-dark)"/><path d="m312 489 146 37" stroke-width="1.2" stroke-opacity=".4" stroke="#64748b"/><path d="m292 494-58 38c-3 2-6 4-8 7l14 2 56-41Z" stroke-width=".75" stroke="#020617" fill="url(#frame-dark)"/><path d="m308 494 58 38c3 2 6 4 8 7l-14 2-56-41Z" stroke-width=".75" stroke="#020617" fill="url(#frame-dark)"/><g id="caster-left"><rect rx="2" stroke-width=".5" stroke="#020617" fill="#090d16" y="528" x="134" height="9" width="12"/><circle stroke-width=".75" stroke="#020617" fill="url(#caster-metal)" r="5" cy="534" cx="140"/><circle fill="#64748b" r="2" cy="534" cx="140"/></g><g id="caster-right"><rect rx="2" stroke-width=".5" stroke="#020617" fill="#090d16" y="528" x="454" height="9" width="12"/><circle stroke-width=".75" stroke="#020617" fill="url(#caster-metal)" r="5" cy="534" cx="460"/><circle fill="#64748b" r="2" cy="534" cx="460"/></g><g id="caster-mid-left"><circle stroke-width=".75" stroke="#020617" fill="url(#caster-metal)" r="5" cy="540" cx="232"/><circle fill="#64748b" r="2" cy="540" cx="232"/></g><g id="caster-mid-right"><circle stroke-width=".75" stroke="#020617" fill="url(#caster-metal)" r="5" cy="540" cx="368"/><circle fill="#64748b" r="2" cy="540" cx="368"/></g></g><g id="gas-lift-column"><rect rx="2" stroke-width=".75" stroke="#020617" fill="#090d16" y="445" x="290" height="35" width="20"/><path d="M293 415h14v35h-14z" stroke-width=".5" stroke="#0f172a" fill="url(#gas-lift-shaft)"/><path d="M265 398h70l-7 20h-56Z" stroke="#020617" fill="#090d16"/><rect rx="2" stroke-width=".75" stroke="#334155" fill="#1e293b" y="416" x="292" height="8" width="16"/><rect rx="2" fill="#334155" y="405" x="250" height="4" width="18"/><rect rx="2" fill="#334155" y="405" x="332" height="4" width="18"/></g><g id="armrest-supports"><path d="m238 396-36-8c-6-2-10-8-10-14v-89h12v83l34 16Z" stroke="#020617" fill="url(#frame-dark)"/><rect rx="1.5" fill="#38bdf8" y="300" x="189" height="12" width="4"/><path d="m362 396 36-8c6-2 10-8 10-14v-89h-12v83l-34 16Z" stroke="#020617" fill="url(#frame-dark)"/><rect rx="1.5" fill="#38bdf8" y="300" x="407" height="12" width="4"/></g><g id="backrest"><path d="M294 395h12l2-175 22-65-12-5-18 45-18-45-12 5 22 65Z" stroke="#020617" fill="#090d16"/><g id="lumbar-support"><path d="M230 295c35 9 105 9 140 0 4-1 6 3 4 7-32 16-116 16-148 0-2-4 0-8 4-7Z" stroke="#1e293b" fill="#090d16"/><path d="M238 297c32 7 92 7 124 0 3-1 5 2 3 5-27 12-103 12-130 0-2-3 0-6 3-5" fill="#1e293b"/><path d="M252 301c28 5 68 5 96 0" stroke-width="2.5" stroke-linecap="round" stroke="url(#cyan-accent)"/></g><path d="M240 145c30-10 90-10 120 0 25 9 35 45 30 95-5 45-2 85-14 125-4 11-14 15-26 15-30 2-70 2-100 0-12 0-22-4-26-15-12-40-9-80-14-125-5-50 5-86 30-95Z" stroke-width="3" stroke="#334155" fill="url(#mesh-gradient)"/><path d="M240 145c30-10 90-10 120 0 25 9 35 45 30 95-5 45-2 85-14 125-4 11-14 15-26 15-30 2-70 2-100 0-12 0-22-4-26-15-12-40-9-80-14-125-5-50 5-86 30-95" fill="url(#mesh-pattern)"/><path d="M244 148c28-9 84-9 112 0 22 8 31 42 26 92-4 42-2 82-13 120" stroke-width="1.5" stroke-opacity=".35" stroke-linecap="round" stroke="#64748b"/></g><g id="seat-pan"><path d="M195 382c0-8 20-12 105-12s105 4 105 12l-5 23c0 7-20 11-100 11s-100-4-100-11Z" stroke="#020617" fill="#090d16"/><path d="M194 382c2 13 24 28 106 28s104-15 106-28c2 14-10 32-106 32s-108-18-106-32" fill="#020617"/><path d="M198 372c14-7 54-10 102-10s88 3 102 10c12 6 10 16-4 24-24 12-63 16-98 16s-74-4-98-16c-14-8-16-18-4-24Z" stroke-width="1.5" stroke="#334155" fill="url(#seat-cushion)"/><path d="M235 375c7 13 11 23 13 29" stroke-width="2" stroke-linecap="round" stroke="#0f172a"/><path d="M236 375c7 13 11 23 13 29" stroke-opacity=".3" stroke-linecap="round" stroke="#64748b"/><path d="M365 375c-7 13-11 23-13 29" stroke-width="2" stroke-linecap="round" stroke="#0f172a"/><path d="M364 375c-7 13-11 23-13 29" stroke-opacity=".3" stroke-linecap="round" stroke="#64748b"/><path d="M215 397c33 10 137 10 170 0" stroke-width="1.75" stroke-opacity=".55" stroke-linecap="round" stroke="#64748b"/></g><g id="armrest-pads"><g id="armpad-left"><ellipse ry="9" rx="26" stroke-width="1.25" stroke="#334155" fill="url(#armpad-gradient)" cy="282" cx="198"/><ellipse ry="6" rx="22" stroke-opacity=".4" stroke="#64748b" cy="281" cx="198"/><ellipse ry="3.5" rx="14" fill="#1e293b" cy="282" cx="198"/></g><g id="armpad-right"><ellipse ry="9" rx="26" stroke-width="1.25" stroke="#334155" fill="url(#armpad-gradient)" cy="282" cx="402"/><ellipse ry="6" rx="22" stroke-opacity=".4" stroke="#64748b" cy="281" cx="402"/><ellipse ry="3.5" rx="14" fill="#1e293b" cy="282" cx="402"/></g></g><g id="headrest"><path d="M292 142V98h16v44Z" stroke-width=".75" stroke="#020617" fill="#090d16"/><circle stroke-width=".75" stroke="#020617" fill="#334155" r="4.5" cy="102" cx="295"/><circle fill="#64748b" r="2" cy="102" cx="295"/><circle stroke-width=".75" stroke="#020617" fill="#334155" r="4.5" cy="102" cx="305"/><circle fill="#64748b" r="2" cy="102" cx="305"/><path d="M245 84c20 8 90 8 110 0 10-4 13-18 3-24-20-12-96-12-116 0-10 6-7 20 3 24Z" stroke-width="1.5" stroke="#334155" fill="url(#headrest-gradient)"/><path d="M252 80c20 6 76 6 96 0 6-3 8-13 2-17-16-9-84-9-100 0-6 4-4 14 2 17" fill="#0f172a"/><path d="M254 62c20-9 72-9 92 0" stroke-width="1.5" stroke-opacity=".6" stroke-linecap="round" stroke="#64748b"/><path d="M248 83c22 7 82 7 104 0" stroke-width="1.5" stroke-linecap="round" stroke="#020617"/><circle fill="#38bdf8" r="1.5" cy="102" cx="300"/></g></svg>